<?xml version="1.0" encoding="utf-8"?>
<!-- Generator: Adobe Illustrator 26.5.0, SVG Export Plug-In . SVG Version: 6.00 Build 0)  -->
<svg version="1.0" id="katman_1" xmlns="http://www.w3.org/2000/svg" xmlns:xlink="http://www.w3.org/1999/xlink" x="0px" y="0px"
	 viewBox="0 0 1190.55 841.89" style="enable-background:new 0 0 1190.55 841.89;" xml:space="preserve">
<style type="text/css">
	.st0{fill:url(#SVGID_1_);}
	.st1{fill:url(#SVGID_00000020363835624839058740000002227504079477294491_);}
	.st2{fill:url(#SVGID_00000106869277816283234280000016954553079459018634_);}
	.st3{fill:url(#SVGID_00000143597435546744557620000015779831159844594111_);}
	.st4{fill:url(#SVGID_00000034774405255441621920000012776864650043741838_);}
	.st5{fill:url(#SVGID_00000140003869335136675360000012186220121806716338_);}
	.st6{opacity:0.8;fill:url(#SVGID_00000115516398664233321270000004052927351977798838_);enable-background:new    ;}
	.st7{opacity:0.8;fill:url(#SVGID_00000053541109693154067670000017185990350849737141_);enable-background:new    ;}
	.st8{fill:#1C355D;}
</style>
<linearGradient id="SVGID_1_" gradientUnits="userSpaceOnUse" x1="434.0568" y1="529.1876" x2="670.9569" y2="171.1499" gradientTransform="matrix(0.75 0 0 -0.75 0 639.6102)">
	<stop  offset="0" style="stop-color:#1C4C9C"/>
	<stop  offset="1" style="stop-color:#694A98"/>
</linearGradient>
<path class="st0" d="M534.52,483.11V356.84c0-4.07-3.3-7.37-7.37-7.37l0,0H382.6c-4.26,0-8.5,1.62-11.75,4.86l-54.42,54.43
	c-6.49,6.44-6.52,16.92-0.08,23.41c0.03,0.03,0.05,0.05,0.08,0.08l53.37,53.37c3.51,3.52,8.21,5.11,12.8,4.83l144.54,0.05
	c4.07,0,7.37-3.3,7.37-7.37v0V483.11z"/>
<linearGradient id="SVGID_00000168102923325548528020000012261625628226317966_" gradientUnits="userSpaceOnUse" x1="529.931" y1="394.258" x2="605.6578" y2="163.6526" gradientTransform="matrix(0.75 0 0 -0.75 0 639.6102)">
	<stop  offset="0" style="stop-color:#1C4C9C"/>
	<stop  offset="1" style="stop-color:#694A98"/>
</linearGradient>
<path style="fill:url(#SVGID_00000168102923325548528020000012261625628226317966_);" d="M525.88,490.5l-143.28-0.05
	c-4.76,0.31-9.42-1.44-12.8-4.82l-53.38-53.38c-3.12-3.11-4.87-7.34-4.86-11.75h222.96v62.61c0,4.07-3.3,7.37-7.37,7.37l0,0h-1.26
	L525.88,490.5z"/>
<linearGradient id="SVGID_00000110435348117221018610000018191007272247927994_" gradientUnits="userSpaceOnUse" x1="1087.4413" y1="357.5469" x2="1129.3479" y2="253.0895" gradientTransform="matrix(0.75 0 0 -0.75 0 639.6102)">
	<stop  offset="0" style="stop-color:#1C4C9C"/>
	<stop  offset="1" style="stop-color:#694A98"/>
</linearGradient>
<path style="fill:url(#SVGID_00000110435348117221018610000018191007272247927994_);" d="M791.96,420.5
	c0-9.17,7.43-16.61,16.6-16.61h53.38c9.17,0,16.61,7.44,16.61,16.61c0,9.17-7.44,16.61-16.61,16.61h-53.38
	C799.39,437.11,791.96,429.67,791.96,420.5z"/>
<linearGradient id="SVGID_00000128468141241898293450000000834652586987264657_" gradientUnits="userSpaceOnUse" x1="1108.2861" y1="317.9339" x2="1119.9718" y2="259.6483" gradientTransform="matrix(0.75 0 0 -0.75 0 639.6102)">
	<stop  offset="0" style="stop-color:#1C4C9C"/>
	<stop  offset="1" style="stop-color:#694A98"/>
</linearGradient>
<path style="fill:url(#SVGID_00000128468141241898293450000000834652586987264657_);" d="M861.94,437.11h-53.38
	c-9.17-0.01-16.6-7.44-16.6-16.61h86.6C878.56,429.67,871.11,437.11,861.94,437.11z"/>
<linearGradient id="SVGID_00000014631513206469746800000007112303975495179445_" gradientUnits="userSpaceOnUse" x1="770.5611" y1="420.3366" x2="1148.0061" y2="215.6236" gradientTransform="matrix(0.75 0 0 -0.75 0 639.6102)">
	<stop  offset="0" style="stop-color:#1C4C9C"/>
	<stop  offset="1" style="stop-color:#694A98"/>
</linearGradient>
<path style="fill:url(#SVGID_00000014631513206469746800000007112303975495179445_);" d="M685.2,473.88V367.13
	c0.04-38.64,31.35-69.96,69.99-70c38.64,0.05,69.94,31.36,69.98,70v106.75c-0.05,38.63-31.35,69.94-69.98,69.98
	C716.56,543.83,685.24,512.52,685.2,473.88z"/>
<linearGradient id="SVGID_00000169525298599855191410000000691098489244237467_" gradientUnits="userSpaceOnUse" x1="880.575" y1="375.4154" x2="1104.9967" y2="131.9985" gradientTransform="matrix(0.75 0 0 -0.75 0 639.6102)">
	<stop  offset="0" style="stop-color:#1C4C9C"/>
	<stop  offset="1" style="stop-color:#694A98"/>
</linearGradient>
<path style="fill:url(#SVGID_00000169525298599855191410000000691098489244237467_);" d="M825.17,473.88v-53.39H685.21v53.38
	c0,22.36,10.54,42.33,26.92,55.13c12.28,9.64,27.45,14.87,43.06,14.85c38.63-0.05,69.94-31.35,69.98-69.98V473.88z"/>
<linearGradient id="SVGID_00000138571563443135554920000007017705217665852557_" gradientUnits="userSpaceOnUse" x1="663.143" y1="340.3958" x2="663.143" y2="660.9664" gradientTransform="matrix(0.75 0 0 -0.75 0 639.6102)">
	<stop  offset="0" style="stop-color:#20AE84"/>
	<stop  offset="1" style="stop-color:#4F7DBF"/>
</linearGradient>
<path style="opacity:0.8;fill:url(#SVGID_00000138571563443135554920000007017705217665852557_);enable-background:new    ;" d="
	M311.56,258.46c0,60.7,43.33,112.62,103.04,123.47l106.31,19.32c0,0,53.37,9.99,158.28-94.93c6.49-6.48,4.58-17.6-2.58-23.34
	L546.37,178.81c-33.84-27.01-75.84-41.75-119.14-41.81C393.13,137.01,311.56,160.89,311.56,258.46z">
<animateTransform  accumulate="none" additive="replace" attributeName="transform" attributeType="XML" calcMode="linear" dur="500ms" fill="url(&quot;#left_wing_gradiant&quot;)" from="0, 32, 13.31" repeatCount="indefinite" restart="always" to="15, 32, 13.31" type="rotate">
		</animateTransform>
</path>
<linearGradient id="SVGID_00000122716921628996306790000000633289322797525647_" gradientUnits="userSpaceOnUse" x1="663.1424" y1="-62.9099" x2="663.1424" y2="257.6449" gradientTransform="matrix(0.75 0 0 -0.75 0 639.6102)">
	<stop  offset="0" style="stop-color:#20AE84"/>
	<stop  offset="1" style="stop-color:#4F7DBF"/>
</linearGradient>
<path style="opacity:0.8;fill:url(#SVGID_00000122716921628996306790000000633289322797525647_);enable-background:new    ;" d="
	M311.56,582.54c0-60.68,43.33-112.62,103.04-123.46l106.31-19.34c0,0,53.37-9.99,158.28,94.93c6.49,6.48,4.58,17.61-2.59,23.34
	L546.37,662.2c-33.84,27.01-75.84,41.74-119.14,41.8C393.13,704,311.56,680.11,311.56,582.54z">
<animateTransform  accumulate="none" additive="replace" attributeName="transform" attributeType="XML" calcMode="linear" dur="500ms" fill="url(&quot;#right_wing_gradiant&quot;)" from="0, 32, 34.562" repeatCount="indefinite" restart="always" to="-15, 32, 34.562" type="rotate">
		</animateTransform>
</path>
<path id="left-body-side" class="st8" d="M507.28,420.5c0-77.84,63.31-141.16,141.13-141.16h10.11
	c15.89-0.04,31.14,6.28,42.36,17.54c11.27,11.21,17.58,26.46,17.54,42.36v163.14c0.05,15.73-6.21,30.83-17.36,41.92
	c-11.09,11.16-26.19,17.41-41.92,17.36h-10.7c-77.84,0-141.16-63.32-141.16-141.16V420.5z"/>
<path class="st8" d="M701.05,544.31c11.15-11.1,17.4-26.19,17.36-41.92V420.5H507.28c0,25.45,6.77,49.35,18.61,69.99
	c24.34,42.49,70.16,71.17,122.56,71.17h10.7c15.73,0.05,30.82-6.2,41.91-17.36H701.05z"/>
</svg>
